<svg id="Layer_1" data-name="Layer 1" xmlns="http://www.w3.org/2000/svg" xmlns:xlink="http://www.w3.org/1999/xlink" viewBox="0 0 143.16 258.16"><defs><style>.cls-1,.cls-16,.cls-2,.cls-6,.cls-9{fill:none;}.cls-2{clip-rule:evenodd;}.cls-3{clip-path:url(#clip-path);}.cls-10,.cls-12,.cls-13,.cls-14,.cls-15,.cls-17,.cls-18,.cls-4,.cls-7,.cls-8{fill-rule:evenodd;}.cls-4{opacity:0.1;}.cls-5,.cls-8{fill:#ea8722;}.cls-16,.cls-6,.cls-9{stroke:#2f1305;}.cls-16,.cls-6{stroke-miterlimit:2.61;}.cls-6,.cls-9{stroke-width:1.5px;}.cls-7{fill:#6e2512;}.cls-9{stroke-linecap:round;stroke-linejoin:round;}.cls-10{fill:#edb045;}.cls-11{clip-path:url(#clip-path-2);}.cls-12{fill:#f2b270;}.cls-14{fill:#d56728;}.cls-15,.cls-20{fill:#fff;}.cls-16{stroke-width:0.22px;}.cls-17{fill:#891d1a;}.cls-18{fill:#2f1305;}.cls-19{fill:#326de6;}</style><clipPath id="clip-path" transform="translate(-154.64 -73.91)"><rect class="cls-1" width="425.2" height="425.2"/></clipPath><clipPath id="clip-path-2" transform="translate(-154.64 -73.91)"><path class="cls-2" d="M196.87,132.36c-2.13,1.37-6.2,3.1-10.11,8.77s-7.68,15.31-11.22,21.79-5.87,12.84-3.81,21.13c.26,1.06.47-.12,1-1.3a10.11,10.11,0,0,1,1.06-1.7.71.71,0,0,1,0,.14,17.19,17.19,0,0,0,1.37,6.73c.53,1.09.61,0,1.14-1.15a9.36,9.36,0,0,1,.88-1.45c6.33,13.89,17,24.14,26.67,24.78,12,.8,19,.92,36.51-19.26a5,5,0,0,1,.24,1.22c.12.95-.09,2.76.89,1.74a21.16,21.16,0,0,0,3.87-6.53l.11-.1.31-.28a6.89,6.89,0,0,1,.42,1.84c.14,1.08-.13,2.92.7,1.89a30.26,30.26,0,0,0,3.94-7.76c2.51-7.55-.51-14.48-3-21.87-3.69-11.05-8.56-25.76-20.58-29.9-6-2.05-14.54-2.66-20.12-2.17a19.91,19.91,0,0,0-10.3,3.44"/></clipPath></defs><title>20K</title><g class="cls-3"><path class="cls-4" d="M223.3,321.57c36.66,0,66.38,2.35,66.38,5.25s-29.72,5.25-66.38,5.25-66.37-2.35-66.37-5.25,29.72-5.25,66.37-5.25" transform="translate(-154.64 -73.91)"/><path class="cls-5" d="M214.38,280.21c4.67-1.29,9.34-2.57,13.72-4a61.38,61.38,0,0,0,12.23-5.45A34.45,34.45,0,0,0,254,254.92a51.29,51.29,0,0,0,2.26-6.64,25.82,25.82,0,0,1,2-5.38,12.61,12.61,0,0,1,2.75-3.31,15.23,15.23,0,0,1,3.89-2.51,16.58,16.58,0,0,1,6.84-1h0v-6.79h0a21.32,21.32,0,0,0-15.8,5.37,19.91,19.91,0,0,0-4.23,5.12,30,30,0,0,0-2.53,6.76,47.75,47.75,0,0,1-2,5.87,28.27,28.27,0,0,1-4.54,7.22,27.49,27.49,0,0,1-6.43,5.44,54.34,54.34,0,0,1-10.67,4.7c-4.17,1.42-8.73,2.67-13.28,3.92Z" transform="translate(-154.64 -73.91)"/><path class="cls-6" d="M214.38,280.21c4.67-1.29,9.34-2.57,13.72-4a61.38,61.38,0,0,0,12.23-5.45A34.45,34.45,0,0,0,254,254.92a51.29,51.29,0,0,0,2.26-6.64,25.82,25.82,0,0,1,2-5.38,12.61,12.61,0,0,1,2.75-3.31,15.23,15.23,0,0,1,3.89-2.51,16.58,16.58,0,0,1,6.84-1h0v-6.79h0a21.32,21.32,0,0,0-15.8,5.37,19.91,19.91,0,0,0-4.23,5.12,30,30,0,0,0-2.53,6.76,47.75,47.75,0,0,1-2,5.87,28.27,28.27,0,0,1-4.54,7.22,27.49,27.49,0,0,1-6.43,5.44,54.34,54.34,0,0,1-10.67,4.7c-4.17,1.42-8.73,2.67-13.28,3.92Z" transform="translate(-154.64 -73.91)"/><path class="cls-7" d="M273.38,225.26c-4.26,1.58-5.89,4.06-4.51,8.13-2.39,5.29,1.8,10.1,8.92,8.22a9.5,9.5,0,0,0,1.32-.34,10.11,10.11,0,0,0,1-.37l.67-.23a23.92,23.92,0,0,1,4.05-1.18,8.8,8.8,0,0,1,3.36.11,14.2,14.2,0,0,1,1.45.66c.11,0-.15-.56-1.6-2.33-.29-.37-.64-.78-1-1.23a23.49,23.49,0,0,1,3.75-2.32,11.15,11.15,0,0,1,4.23-1,14.23,14.23,0,0,1,2,.3c.12-.09-.38-.64-2.82-2.34C288.51,227.31,280.53,222.6,273.38,225.26Z" transform="translate(-154.64 -73.91)"/><path class="cls-6" d="M273.38,225.26c-4.26,1.58-5.89,4.06-4.51,8.13-2.39,5.29,1.8,10.1,8.92,8.22a9.5,9.5,0,0,0,1.32-.34,10.11,10.11,0,0,0,1-.37l.67-.23a23.92,23.92,0,0,1,4.05-1.18,8.8,8.8,0,0,1,3.36.11,14.2,14.2,0,0,1,1.45.66c.11,0-.15-.56-1.6-2.33-.29-.37-.64-.78-1-1.23a23.49,23.49,0,0,1,3.75-2.32,11.15,11.15,0,0,1,4.23-1,14.23,14.23,0,0,1,2,.3c.12-.09-.38-.64-2.82-2.34C288.51,227.31,280.53,222.6,273.38,225.26Z" transform="translate(-154.64 -73.91)"/><path class="cls-8" d="M200.58,211.64c-2,4.75-4.08,11.63-8.14,18.51a73,73,0,0,1-15.93,18.47c-5.81,4.72-11.37,7.28-14.29,9.31s-3.17,3.51-3.08,5a5.9,5.9,0,0,0,2.24,4.45,11.42,11.42,0,0,0,7.7,2.64c3.07-.18,6.27-1.92,10.59-5a108.46,108.46,0,0,0,14.84-12.67,81.15,81.15,0,0,0,13.18-17.58,83.41,83.41,0,0,0,6.32-16c1-3.45,1-4,.7-6.22s-1-6.2-2.44-8.3-3.51-2.35-5.57-1.17S202.61,206.89,200.58,211.64Z" transform="translate(-154.64 -73.91)"/><path class="cls-6" d="M200.58,211.64c-2,4.75-4.08,11.63-8.14,18.51a73,73,0,0,1-15.93,18.47c-5.81,4.72-11.37,7.28-14.29,9.31s-3.17,3.51-3.08,5a5.9,5.9,0,0,0,2.24,4.45,11.42,11.42,0,0,0,7.7,2.64c3.07-.18,6.27-1.92,10.59-5a108.46,108.46,0,0,0,14.84-12.67,81.15,81.15,0,0,0,13.18-17.58,83.41,83.41,0,0,0,6.32-16c1-3.45,1-4,.7-6.22s-1-6.2-2.44-8.3-3.51-2.35-5.57-1.17S202.61,206.89,200.58,211.64Z" transform="translate(-154.64 -73.91)"/><path class="cls-8" d="M242,259.77c-.2,6.48-.59,19.39-1.49,26.29s-2.31,7.79-2.24,11.16,1.59,9.22,2.56,12.77,1.4,4.81,2.19,5.77,1.94,1.61,2.63,3.36.91,4.6-.2,6.47-3.55,2.78-7.82,3a53.15,53.15,0,0,1-13.48-1.26c-3.12-.87-3.27-2-3.27-3.65a23.24,23.24,0,0,1,.63-5.48,21.59,21.59,0,0,0,1.27-6.92A82.66,82.66,0,0,0,221.4,300a35.18,35.18,0,0,1-.7-6c-.09-2.47-.13-6.74-.39-9.24s-.71-3.24-2.77-3.4-5.72.24-7.78-.57-2.53-2.84-.07-5.45,7.86-5.8,12.43-8.3,8.32-4.34,11.52-6.53a60.65,60.65,0,0,0,7.19-6C242.15,253.25,242.15,253.29,242,259.77Z" transform="translate(-154.64 -73.91)"/><path class="cls-6" d="M242,259.77c-.2,6.48-.59,19.39-1.49,26.29s-2.31,7.79-2.24,11.16,1.59,9.22,2.56,12.77,1.4,4.81,2.19,5.77,1.94,1.61,2.63,3.36.91,4.6-.2,6.47-3.55,2.78-7.82,3a53.15,53.15,0,0,1-13.48-1.26c-3.12-.87-3.27-2-3.27-3.65a23.24,23.24,0,0,1,.63-5.48,21.59,21.59,0,0,0,1.27-6.92A82.66,82.66,0,0,0,221.4,300a35.18,35.18,0,0,1-.7-6c-.09-2.47-.13-6.74-.39-9.24s-.71-3.24-2.77-3.4-5.72.24-7.78-.57-2.53-2.84-.07-5.45,7.86-5.8,12.43-8.3,8.32-4.34,11.52-6.53a60.65,60.65,0,0,0,7.19-6C242.15,253.25,242.15,253.29,242,259.77Z" transform="translate(-154.64 -73.91)"/><path class="cls-8" d="M188.8,260.11c-.41,6.53-1.24,19.56-.45,26.41s3.18,7.54,3.51,10.52-1.38,8.25-3,11.4-3,4.15-4.89,4.89-4.32,1.21-5.79,2.65a6.73,6.73,0,0,0-1.7,5.62c.3,1.78,1.42,2.94,6.53,3.45s14.19.39,18.45-.52,3.67-2.57,4.58-7.1,3.31-11.91,3.76-15.94-1-4.7-1.32-7.23.68-6.89,1.38-9.44,1.16-3.29,3.22-3.45,5.72.24,7.79-.57,2.53-2.84.06-5.45-7.86-5.8-12.43-8.3-8.31-4.34-11.4-6.48a48.48,48.48,0,0,1-6.72-5.82C189.21,253.54,189.21,253.58,188.8,260.11Z" transform="translate(-154.64 -73.91)"/><path class="cls-6" d="M188.8,260.11c-.41,6.53-1.24,19.56-.45,26.41s3.18,7.54,3.51,10.52-1.38,8.25-3,11.4-3,4.15-4.89,4.89-4.32,1.21-5.79,2.65a6.73,6.73,0,0,0-1.7,5.62c.3,1.78,1.42,2.94,6.53,3.45s14.19.39,18.45-.52,3.67-2.57,4.58-7.1,3.31-11.91,3.76-15.94-1-4.7-1.32-7.23.68-6.89,1.38-9.44,1.16-3.29,3.22-3.45,5.72.24,7.79-.57,2.53-2.84.06-5.45-7.86-5.8-12.43-8.3-8.31-4.34-11.4-6.48a48.48,48.48,0,0,1-6.72-5.82C189.21,253.54,189.21,253.58,188.8,260.11Z" transform="translate(-154.64 -73.91)"/><path class="cls-8" d="M239.48,215c1.51,6.29,2.12,19,2.35,29.42s.06,18.52-.1,22.82-.34,4.77-2.89,6.61a40.19,40.19,0,0,1-14.94,6.71c-7.46,1.67-17.46,1.82-23.66-.69s-8.59-7.68-9.85-13.92a78.79,78.79,0,0,1-.91-20.59,119.49,119.49,0,0,1,3.17-20c1.52-6.16,3.41-11.72,8.61-14.72s13.71-3.45,19.58-3.29a98.57,98.57,0,0,1,11.93,1.22C235.58,208.91,238,208.76,239.48,215Z" transform="translate(-154.64 -73.91)"/><path class="cls-6" d="M239.48,215c1.51,6.29,2.12,19,2.35,29.42s.06,18.52-.1,22.82-.34,4.77-2.89,6.61a40.19,40.19,0,0,1-14.94,6.71c-7.46,1.67-17.46,1.82-23.66-.69s-8.59-7.68-9.85-13.92a78.79,78.79,0,0,1-.91-20.59,119.49,119.49,0,0,1,3.17-20c1.52-6.16,3.41-11.72,8.61-14.72s13.71-3.45,19.58-3.29a98.57,98.57,0,0,1,11.93,1.22C235.58,208.91,238,208.76,239.48,215Z" transform="translate(-154.64 -73.91)"/><path class="cls-9" d="M187.23,315.38a16,16,0,0,0-4.83,2,5,5,0,0,0-2,3.51,4.91,4.91,0,0,0,.72,3.58,3.66,3.66,0,0,0,2.75.87" transform="translate(-154.64 -73.91)"/><path class="cls-8" d="M241.21,258.54c.12,2-.06,7.08-.25,10.74a40.16,40.16,0,0,1-.79,7.52,10.37,10.37,0,0,1-1.59,3.44c-.46.66-.71.89-2.72,1.06a71.32,71.32,0,0,1-7.49.19c-1.71-.09-1.37-.4-1.12-.68a2.31,2.31,0,0,0,.5-.75.75.75,0,0,0,0-.57.46.46,0,0,0-.48-.35c-.29,0-.74.2-1,.14s-.39-.36-.26-.7a6,6,0,0,1,1.39-1.54,43.06,43.06,0,0,0,3.77-3.86,57.42,57.42,0,0,0,4.74-6.58,79.39,79.39,0,0,0,3.86-7c.92-1.89,1.34-3.05,1.46-1.07" transform="translate(-154.64 -73.91)"/><path class="cls-8" d="M190,255.91a85.14,85.14,0,0,0-.82,10.92c-.15,4.73-.08,9.17.68,11.72s2.2,3.19,4.81,3.57a39.77,39.77,0,0,0,8,.31c1.61-.19,1.07-.67.82-1a.92.92,0,0,1-.17-.74c0-.12,0-.13.09-.18a1.27,1.27,0,0,1,.54-.19,6.48,6.48,0,0,0,1-.16c.27-.1.34-.28.18-.57a8,8,0,0,0-1.41-1.48,47.66,47.66,0,0,1-3.77-3.86,56.72,56.72,0,0,1-4.73-6.59,36.29,36.29,0,0,1-3.8-7.71c-.84-2.61-1.12-5.21-1.44-4" transform="translate(-154.64 -73.91)"/><path class="cls-10" d="M228.09,220.32c1.17,5.41,1.78,16.36,1.88,25.16s-.3,15.48-2.29,20.13-5.55,7.3-10.94,8.68-12.63,1.51-17.11-.56-6.21-6.36-7.12-11.51a74.32,74.32,0,0,1-.66-17,114.19,114.19,0,0,1,2.29-16.53c1.1-5.1,2.47-9.69,6.23-12.17s9.91-2.86,14.16-2.73a64.2,64.2,0,0,1,8.62,1C225.19,215,226.92,214.91,228.09,220.32Z" transform="translate(-154.64 -73.91)"/><path class="cls-6" d="M228.09,220.32c1.17,5.41,1.78,16.36,1.88,25.16s-.3,15.48-2.29,20.13-5.55,7.3-10.94,8.68-12.63,1.51-17.11-.56-6.21-6.36-7.12-11.51a74.32,74.32,0,0,1-.66-17,114.19,114.19,0,0,1,2.29-16.53c1.1-5.1,2.47-9.69,6.23-12.17s9.91-2.86,14.16-2.73a64.2,64.2,0,0,1,8.62,1C225.19,215,226.92,214.91,228.09,220.32Z" transform="translate(-154.64 -73.91)"/><path class="cls-9" d="M238.29,318.48a5.88,5.88,0,0,1,1.8,2,9.18,9.18,0,0,1,.74,3.51,12.37,12.37,0,0,1-.27,3.58,1,1,0,0,1-1,.87" transform="translate(-154.64 -73.91)"/><path class="cls-9" d="M229.56,319.3a5.43,5.43,0,0,1,1.79,1.78,7.59,7.59,0,0,1,.74,3.2,9.81,9.81,0,0,1-.27,3.27,1,1,0,0,1-1,.79" transform="translate(-154.64 -73.91)"/><path class="cls-8" d="M226.69,218.6c-2,4.75-4.08,11.63-8.13,18.51a73.15,73.15,0,0,1-15.93,18.47c-5.82,4.72-11.38,7.28-14.29,9.31s-3.18,3.51-3.08,5a5.89,5.89,0,0,0,2.23,4.45A11.47,11.47,0,0,0,195.2,277c3.06-.18,6.27-1.92,10.58-5a108.49,108.49,0,0,0,14.85-12.67,81.8,81.8,0,0,0,13.18-17.58,83.41,83.41,0,0,0,6.32-16c1-3.45,1-4,.69-6.22s-1-6.2-2.44-8.3-3.51-2.35-5.57-1.17S228.73,213.85,226.69,218.6Z" transform="translate(-154.64 -73.91)"/><path class="cls-6" d="M226.69,218.6c-2,4.75-4.08,11.63-8.13,18.51a73.15,73.15,0,0,1-15.93,18.47c-5.82,4.72-11.38,7.28-14.29,9.31s-3.18,3.51-3.08,5a5.89,5.89,0,0,0,2.23,4.45A11.47,11.47,0,0,0,195.2,277c3.06-.18,6.27-1.92,10.58-5a108.49,108.49,0,0,0,14.85-12.67,81.8,81.8,0,0,0,13.18-17.58,83.41,83.41,0,0,0,6.32-16c1-3.45,1-4,.69-6.22s-1-6.2-2.44-8.3-3.51-2.35-5.57-1.17S228.73,213.85,226.69,218.6Z" transform="translate(-154.64 -73.91)"/><path class="cls-7" d="M166.12,209.71c2,3.35.77,5.11.43,6s.11.82,1.24-.54a13.07,13.07,0,0,0,3.09-7.57,21.38,21.38,0,0,0-.5-4.82,122.44,122.44,0,0,0,12.7,11.58c7.22,5.74,12.08,8.37,14.53,11.11a9.8,9.8,0,0,1,2.47,7.11,9.81,9.81,0,0,0,0,1.69c.06,0,.26-.18,6.66-3s19-8.4,29.35-15.59a80.57,80.57,0,0,0,10.27-8.44,26.35,26.35,0,0,1-.9,3.94,51,51,0,0,1-3.51,7.55c-.59,1.2.1.52,1.81-.8a36.71,36.71,0,0,0,8.12-8.23,69.22,69.22,0,0,0,10.65-21.06c.21-.75.4-1.5.57-2.24a26.61,26.61,0,0,1,.84,4.51,48.42,48.42,0,0,1-.31,8.28c-.07,1.33.31.44,1.37-1.41a35.38,35.38,0,0,0,4.3-10.61,68.1,68.1,0,0,0,1.64-23.41c-1.06-8.37-4.4-16-8.19-22.57-1.66-2.87-3.4-5.54-5-7.82,3.55-2.3,5.42-5.2,6.54-9.85a74.26,74.26,0,0,0,1.5-16.08c0-4.18-.49-5.58-.78-6s-.43.18-2.28,2.28a26.29,26.29,0,0,1-5.31,4.63,78.66,78.66,0,0,0-2.45-18,67.48,67.48,0,0,0-4.56-12.74,14.57,14.57,0,0,0-1.52-2.82c-.14-.17-.13-.13-.4,1.3a32,32,0,0,1-2.72,8.32c-1.91,4.07-5.19,9.39-14.67,13s-25.15,5.44-34.7,8.51S183,113,181.12,117c-3.15,6.65-8.67,11.8-13,18.74C149.74,165.19,153.25,187.69,166.12,209.71Z" transform="translate(-154.64 -73.91)"/><path class="cls-6" d="M166.12,209.71c2,3.35.77,5.11.43,6s.11.82,1.24-.54a13.07,13.07,0,0,0,3.09-7.57,21.38,21.38,0,0,0-.5-4.82,122.44,122.44,0,0,0,12.7,11.58c7.22,5.74,12.08,8.37,14.53,11.11a9.8,9.8,0,0,1,2.47,7.11,9.81,9.81,0,0,0,0,1.69c.06,0,.26-.18,6.66-3s19-8.4,29.35-15.59a80.57,80.57,0,0,0,10.27-8.44,26.35,26.35,0,0,1-.9,3.94,51,51,0,0,1-3.51,7.55c-.59,1.2.1.52,1.81-.8a36.71,36.71,0,0,0,8.12-8.23,69.22,69.22,0,0,0,10.65-21.06c.21-.75.4-1.5.57-2.24a26.61,26.61,0,0,1,.84,4.51,48.42,48.42,0,0,1-.31,8.28c-.07,1.33.31.44,1.37-1.41a35.38,35.38,0,0,0,4.3-10.61,68.1,68.1,0,0,0,1.64-23.41c-1.06-8.37-4.4-16-8.19-22.57-1.66-2.87-3.4-5.54-5-7.82,3.55-2.3,5.42-5.2,6.54-9.85a74.26,74.26,0,0,0,1.5-16.08c0-4.18-.49-5.58-.78-6s-.43.18-2.28,2.28a26.29,26.29,0,0,1-5.31,4.63,78.66,78.66,0,0,0-2.45-18,67.48,67.48,0,0,0-4.56-12.74,14.57,14.57,0,0,0-1.52-2.82c-.14-.17-.13-.13-.4,1.3a32,32,0,0,1-2.72,8.32c-1.91,4.07-5.19,9.39-14.67,13s-25.15,5.44-34.7,8.51S183,113,181.12,117c-3.15,6.65-8.67,11.8-13,18.74C149.74,165.19,153.25,187.69,166.12,209.71Z" transform="translate(-154.64 -73.91)"/><path class="cls-8" d="M196.87,132.36c-2.13,1.37-6.2,3.1-10.11,8.77s-7.68,15.31-11.22,21.79-5.87,12.84-3.81,21.13c.26,1.06.47-.12,1-1.3a10.11,10.11,0,0,1,1.06-1.7.71.71,0,0,1,0,.14,17.19,17.19,0,0,0,1.37,6.73c.53,1.09.61,0,1.14-1.15a9.36,9.36,0,0,1,.88-1.45c6.33,13.89,17,24.14,26.67,24.78,12,.8,19,.92,36.51-19.26a5,5,0,0,1,.24,1.22c.12.95-.09,2.76.89,1.74a21.16,21.16,0,0,0,3.87-6.53l.11-.1.31-.28a6.89,6.89,0,0,1,.42,1.84c.14,1.08-.13,2.92.7,1.89a30.26,30.26,0,0,0,3.94-7.76c2.51-7.55-.51-14.48-3-21.87-3.69-11.05-8.56-25.76-20.58-29.9-6-2.05-14.54-2.66-20.12-2.17a19.91,19.91,0,0,0-10.3,3.44" transform="translate(-154.64 -73.91)"/><g class="cls-11"><path class="cls-12" d="M220.28,175.76c-3.73-.5-8.26.86-13.65,1.22-5.64.39-15-6.45-22.32,1.63-6.54,7.18-2.71,14.56,3.33,22.46,2.31,3,1.53,6,2.77,8.31s2.81,2.67,5.54,3.11c1.06.17,2.26.3,3.63.43,4.89.48,13.46.18,16.64-1.53s4,1.39,5.18.11c2.53-2.71-1-3.21,2-4.89C231.64,201.87,235,188,230.88,181,228.47,176.92,224,176.27,220.28,175.76Z" transform="translate(-154.64 -73.91)"/><path class="cls-6" d="M220.28,175.76c-3.73-.5-8.26.86-13.65,1.22-5.64.39-15-6.45-22.32,1.63-6.54,7.18-2.71,14.56,3.33,22.46,2.31,3,1.53,6,2.77,8.31s2.81,2.67,5.54,3.11c1.06.17,2.26.3,3.63.43,4.89.48,13.46.18,16.64-1.53s4,1.39,5.18.11c2.53-2.71-1-3.21,2-4.89C231.64,201.87,235,188,230.88,181,228.47,176.92,224,176.27,220.28,175.76Z" transform="translate(-154.64 -73.91)"/></g><path class="cls-6" d="M196.87,132.36c-2.13,1.37-6.2,3.1-10.11,8.77s-7.68,15.31-11.22,21.79-5.87,12.84-3.81,21.13c.26,1.06.47-.12,1-1.3a10.11,10.11,0,0,1,1.06-1.7.71.71,0,0,1,0,.14,17.19,17.19,0,0,0,1.37,6.73c.53,1.09.61,0,1.14-1.15a9.36,9.36,0,0,1,.88-1.45c6.33,13.89,17,24.14,26.67,24.78,12,.8,19,.92,36.51-19.26a5,5,0,0,1,.24,1.22c.12.95-.09,2.76.89,1.74a21.16,21.16,0,0,0,3.87-6.53l.11-.1.31-.28a6.89,6.89,0,0,1,.42,1.84c.14,1.08-.13,2.92.7,1.89a30.26,30.26,0,0,0,3.94-7.76c2.51-7.55-.51-14.48-3-21.87-3.69-11.05-8.56-25.76-20.58-29.9-6-2.05-14.54-2.66-20.12-2.17A19.91,19.91,0,0,0,196.87,132.36Z" transform="translate(-154.64 -73.91)"/><path class="cls-8" d="M240.49,135.65a9.17,9.17,0,0,1-2.19-4.26c3.52-2.22,7-4.45,10.35-5.62.36-.13.72-.25,1.08-.35a14.8,14.8,0,0,1,8.94.14,5.56,5.56,0,0,1,3.53,3.52,11.66,11.66,0,0,1,.89,6.45,23,23,0,0,1-2.7,7.29l-.44.75c-.35.55-.69,1-1,1.47A19.23,19.23,0,0,1,256,148l-.7.25a4.6,4.6,0,0,1-3.3.2,6.76,6.76,0,0,1-2.16-1.91c-.61-.72-1.33-1.63-2.25-2.7C245.45,141.31,242.22,137.88,240.49,135.65Z" transform="translate(-154.64 -73.91)"/><path class="cls-6" d="M240.49,135.65a9.17,9.17,0,0,1-2.19-4.26c3.52-2.22,7-4.45,10.35-5.62.36-.13.72-.25,1.08-.35a14.8,14.8,0,0,1,8.94.14,5.56,5.56,0,0,1,3.53,3.52,11.66,11.66,0,0,1,.89,6.45,23,23,0,0,1-2.7,7.29l-.44.75c-.35.55-.69,1-1,1.47A19.23,19.23,0,0,1,256,148l-.7.25a4.6,4.6,0,0,1-3.3.2,6.76,6.76,0,0,1-2.16-1.91c-.61-.72-1.33-1.63-2.25-2.7C245.45,141.31,242.22,137.88,240.49,135.65Z" transform="translate(-154.64 -73.91)"/><path class="cls-9" d="M204.09,181.5a45.59,45.59,0,0,1,.37,6,3.34,3.34,0,0,1-1.72,3.2,12.16,12.16,0,0,1-5.25,1.29,7.24,7.24,0,0,1-4.64-1.33,11.35,11.35,0,0,1-2.7-3.65" transform="translate(-154.64 -73.91)"/><path class="cls-9" d="M204.07,189.32a13.87,13.87,0,0,0,4.57,3.4,9.18,9.18,0,0,0,6.15.1,12.12,12.12,0,0,0,7.15-7" transform="translate(-154.64 -73.91)"/><path class="cls-13" d="M208.64,192.72a13.87,13.87,0,0,1-4.57-3.4,3.11,3.11,0,0,1-1.33,1.34,12.16,12.16,0,0,1-5.25,1.29,9.24,9.24,0,0,1-1.19,0,2.37,2.37,0,0,1,1,.64,5.62,5.62,0,0,1,1.23,3.17,5.36,5.36,0,0,1-.57,3.09,2.33,2.33,0,0,1-1.34,1c-.34.13-.45.21.77.51a34.87,34.87,0,0,0,11.07,1.32c9.09-.56,5.74-6.13,12.23-13.49a11,11,0,0,1-6,4.6A8.62,8.62,0,0,1,208.64,192.72Z" transform="translate(-154.64 -73.91)"/><path class="cls-6" d="M208.64,192.72a13.87,13.87,0,0,1-4.57-3.4,3.11,3.11,0,0,1-1.33,1.34,12.16,12.16,0,0,1-5.25,1.29,9.24,9.24,0,0,1-1.19,0,2.37,2.37,0,0,1,1,.64,5.62,5.62,0,0,1,1.23,3.17,5.36,5.36,0,0,1-.57,3.09,2.33,2.33,0,0,1-1.34,1c-.34.13-.45.21.77.51a34.87,34.87,0,0,0,11.07,1.32c9.09-.56,5.74-6.13,12.23-13.49a11,11,0,0,1-6,4.6A8.62,8.62,0,0,1,208.64,192.72Z" transform="translate(-154.64 -73.91)"/><path class="cls-14" d="M242.36,137.89a5.92,5.92,0,0,1-1.42-2.75,37.28,37.28,0,0,1,6.68-3.63c.24-.08.47-.16.7-.22a9.51,9.51,0,0,1,5.77.09,3.57,3.57,0,0,1,2.28,2.27,7.47,7.47,0,0,1,.57,4.16,14.86,14.86,0,0,1-1.73,4.71l-.29.48a9.76,9.76,0,0,1-.66.95,12.57,12.57,0,0,1-1.89,1.9l-.45.16a3,3,0,0,1-2.13.12,4.14,4.14,0,0,1-1.39-1.23c-.4-.46-.87-1.05-1.46-1.74C245.56,141.54,243.48,139.33,242.36,137.89Z" transform="translate(-154.64 -73.91)"/><path class="cls-6" d="M242.36,137.89a5.92,5.92,0,0,1-1.42-2.75,37.28,37.28,0,0,1,6.68-3.63c.24-.08.47-.16.7-.22a9.51,9.51,0,0,1,5.77.09,3.57,3.57,0,0,1,2.28,2.27,7.47,7.47,0,0,1,.57,4.16,14.86,14.86,0,0,1-1.73,4.71l-.29.48a9.76,9.76,0,0,1-.66.95,12.57,12.57,0,0,1-1.89,1.9l-.45.16a3,3,0,0,1-2.13.12,4.14,4.14,0,0,1-1.39-1.23c-.4-.46-.87-1.05-1.46-1.74C245.56,141.54,243.48,139.33,242.36,137.89Z" transform="translate(-154.64 -73.91)"/><path class="cls-8" d="M188.15,131.46a9.12,9.12,0,0,0,2.56-4c-3.28-2.53-6.57-5.06-9.73-6.53-.35-.16-.69-.31-1-.45a14.78,14.78,0,0,0-8.87-.69,5.56,5.56,0,0,0-3.82,3.16,11.64,11.64,0,0,0-1.48,6.31,23.07,23.07,0,0,0,2,7.47c.12.27.25.53.37.78a15.57,15.57,0,0,0,.88,1.55,19.16,19.16,0,0,0,2.62,3.18l.67.31a4.56,4.56,0,0,0,3.26.51,6.84,6.84,0,0,0,2.31-1.69c.67-.66,1.47-1.49,2.48-2.47C182.71,136.61,186.23,133.51,188.15,131.46Z" transform="translate(-154.64 -73.91)"/><path class="cls-6" d="M188.15,131.46a9.12,9.12,0,0,0,2.56-4c-3.28-2.53-6.57-5.06-9.73-6.53-.35-.16-.69-.31-1-.45a14.78,14.78,0,0,0-8.87-.69,5.56,5.56,0,0,0-3.82,3.16,11.64,11.64,0,0,0-1.48,6.31,23.07,23.07,0,0,0,2,7.47c.12.27.25.53.37.78a15.57,15.57,0,0,0,.88,1.55,19.16,19.16,0,0,0,2.62,3.18l.67.31a4.56,4.56,0,0,0,3.26.51,6.84,6.84,0,0,0,2.31-1.69c.67-.66,1.47-1.49,2.48-2.47C182.71,136.61,186.23,133.51,188.15,131.46Z" transform="translate(-154.64 -73.91)"/><path class="cls-14" d="M186.47,133.29a6,6,0,0,0,1.69-2.6,36.36,36.36,0,0,0-6.29-4.28l-.67-.29a9.48,9.48,0,0,0-5.75-.49,3.59,3.59,0,0,0-2.49,2,7.55,7.55,0,0,0-1,4.09,14.74,14.74,0,0,0,1.26,4.85l.24.51a9.34,9.34,0,0,0,.56,1,12.46,12.46,0,0,0,1.69,2.08l.43.2a3,3,0,0,0,2.11.34,4.33,4.33,0,0,0,1.51-1.08c.44-.43,1-1,1.62-1.59C182.92,136.6,185.22,134.6,186.47,133.29Z" transform="translate(-154.64 -73.91)"/><path class="cls-6" d="M186.47,133.29a6,6,0,0,0,1.69-2.6,36.36,36.36,0,0,0-6.29-4.28l-.67-.29a9.48,9.48,0,0,0-5.75-.49,3.59,3.59,0,0,0-2.49,2,7.55,7.55,0,0,0-1,4.09,14.74,14.74,0,0,0,1.26,4.85l.24.51a9.34,9.34,0,0,0,.56,1,12.46,12.46,0,0,0,1.69,2.08l.43.2a3,3,0,0,0,2.11.34,4.33,4.33,0,0,0,1.51-1.08c.44-.43,1-1,1.62-1.59C182.92,136.6,185.22,134.6,186.47,133.29Z" transform="translate(-154.64 -73.91)"/><path class="cls-7" d="M174.63,139.83c-1,1.25-1.9,2.48-2.66,3.5a5.5,5.5,0,0,0,3.35.48c1-.34,2,0,3-.9l.88-.87a7.44,7.44,0,0,0,1.14-.94c.47-.46.9-.58,2.07-1.7s4-4.27,4.87-5.17a6.87,6.87,0,0,0,.88-1,12.28,12.28,0,0,0,.9-.94c1.17-1.23,2.12-4.09,2.46-5.15l-2.29-1.75-4.06,2.49c-1,.64-1.88,1.18-2.51,1.59-1.85,1.2-1.69,1.24-.92,1.3s2.16.14,1.79.65-2.48,1.44-5,3.9a49.17,49.17,0,0,0-3.91,4.52" transform="translate(-154.64 -73.91)"/><path class="cls-9" d="M191.38,124.09c-3.62,2.2-7.23,4.41-9,5.53s-1.58,1.16-.86,1.22,2,.13,1.68.61-2.32,1.35-4.66,3.65a76.45,76.45,0,0,0-6.64,8.16,20.48,20.48,0,0,1-2.55,3.07c-.46.4-.88.66.76.43s5.32-.95,9-1.67" transform="translate(-154.64 -73.91)"/><path class="cls-7" d="M252.92,146c1,1.25,1.9,2.48,2.66,3.5a5.5,5.5,0,0,1-3.35.48c-1-.34-2,0-3-.9l-.88-.87a7,7,0,0,1-1.14-.94c-.47-.46-.9-.58-2.07-1.7s-4-4.27-4.87-5.17a6.87,6.87,0,0,1-.88-1,12.6,12.6,0,0,1-.91-.94c-1.16-1.24-2.11-4.09-2.45-5.15.76-.59,1.53-1.18,2.29-1.75l4.06,2.49c1,.64,1.88,1.18,2.51,1.59,1.85,1.2,1.69,1.24.92,1.3s-2.16.14-1.79.65,2.48,1.44,5,3.9a49.17,49.17,0,0,1,3.91,4.52" transform="translate(-154.64 -73.91)"/><path class="cls-9" d="M236.17,130.21c3.62,2.21,7.23,4.42,9,5.54s1.58,1.16.86,1.22-2,.13-1.68.61,2.32,1.35,4.66,3.65a77.7,77.7,0,0,1,6.64,8.16,19.51,19.51,0,0,0,2.55,3.06c.46.4.88.67-.76.44s-5.32-.95-9-1.67" transform="translate(-154.64 -73.91)"/><path class="cls-7" d="M210.83,124.59a42.69,42.69,0,0,0-9.15-.09,5.59,5.59,0,0,0-4.85,3.6,12.19,12.19,0,0,0-.36,10.63c1.94,4.49,6.94,9.69,9,11.22s1.13-.58,1-3.22a26.77,26.77,0,0,1,1.5-8.56c.9-2.8,2-5.26,5.17-6.41s8.5-1,11.63-.83,4.11.3,2.74-.57a54.18,54.18,0,0,0-8.15-3.93A30.63,30.63,0,0,0,210.83,124.59Z" transform="translate(-154.64 -73.91)"/><path class="cls-6" d="M210.83,124.59a42.69,42.69,0,0,0-9.15-.09,5.59,5.59,0,0,0-4.85,3.6,12.19,12.19,0,0,0-.36,10.63c1.94,4.49,6.94,9.69,9,11.22s1.13-.58,1-3.22a26.77,26.77,0,0,1,1.5-8.56c.9-2.8,2-5.26,5.17-6.41s8.5-1,11.63-.83,4.11.3,2.74-.57a54.18,54.18,0,0,0-8.15-3.93A30.63,30.63,0,0,0,210.83,124.59Z" transform="translate(-154.64 -73.91)"/><path class="cls-7" d="M218.88,126.45a28,28,0,0,0-5.81-.67,3.59,3.59,0,0,0-3.32,2,7.79,7.79,0,0,0-.93,6.73,22.56,22.56,0,0,0,5,7.73c1.2,1.11.76-.3.87-2a17.17,17.17,0,0,1,1.52-5.34c.76-1.72,1.61-3.21,3.71-3.73s5.47-.06,7.45.25,2.59.46,1.78-.19a36.4,36.4,0,0,0-4.92-3A19.54,19.54,0,0,0,218.88,126.45Z" transform="translate(-154.64 -73.91)"/><path class="cls-6" d="M218.88,126.45a28,28,0,0,0-5.81-.67,3.59,3.59,0,0,0-3.32,2,7.79,7.79,0,0,0-.93,6.73,22.56,22.56,0,0,0,5,7.73c1.2,1.11.76-.3.87-2a17.17,17.17,0,0,1,1.52-5.34c.76-1.72,1.61-3.21,3.71-3.73s5.47-.06,7.45.25,2.59.46,1.78-.19a36.4,36.4,0,0,0-4.92-3A19.54,19.54,0,0,0,218.88,126.45Z" transform="translate(-154.64 -73.91)"/><path class="cls-15" d="M213.88,193.21c-.07.73-.14,1.37-.21,1.77-.11.66-.22.68-.56-.08-.16-.37-.37-.92-.56-1.51A9.67,9.67,0,0,0,213.88,193.21Z" transform="translate(-154.64 -73.91)"/><path class="cls-16" d="M213.88,193.21c-.07.73-.14,1.37-.21,1.77-.11.66-.22.68-.56-.08-.16-.37-.37-.92-.56-1.51A9.67,9.67,0,0,0,213.88,193.21Z" transform="translate(-154.64 -73.91)"/><path class="cls-15" d="M197.85,192c.22.7.42,1.31.58,1.69.24.62.36.62.53-.2a13.6,13.6,0,0,0,.23-1.59A8.54,8.54,0,0,1,197.85,192Z" transform="translate(-154.64 -73.91)"/><path class="cls-16" d="M197.85,192c.22.7.42,1.31.58,1.69.24.62.36.62.53-.2a13.6,13.6,0,0,0,.23-1.59A8.54,8.54,0,0,1,197.85,192Z" transform="translate(-154.64 -73.91)"/><path class="cls-9" d="M219.66,184.7a5.16,5.16,0,0,1,1.37.18,3.46,3.46,0,0,1,1.43.87,8.58,8.58,0,0,1,1.12,1.62" transform="translate(-154.64 -73.91)"/><path class="cls-17" d="M214.92,198.67c-1.66-1.8-4.24-1.36-7.7-1.36s-6.9.49-8.14,3.41a32,32,0,0,0,9.41.92C212.2,201.41,213.84,200.35,214.92,198.67Z" transform="translate(-154.64 -73.91)"/><path class="cls-16" d="M214.92,198.67c-1.66-1.8-4.24-1.36-7.7-1.36s-6.9.49-8.14,3.41a32,32,0,0,0,9.41.92C212.2,201.41,213.84,200.35,214.92,198.67Z" transform="translate(-154.64 -73.91)"/><path class="cls-9" d="M220.8,170.15c2.27-.52,4.54-1,6.47-1.29a36.15,36.15,0,0,1,5.13-.26" transform="translate(-154.64 -73.91)"/><path class="cls-9" d="M195.79,170.34c-2.13-.41-4.25-.83-6.12-1a42.92,42.92,0,0,0-5.06-.21" transform="translate(-154.64 -73.91)"/><path class="cls-9" d="M198.76,158.45A21.74,21.74,0,0,1,199,163a14.76,14.76,0,0,1-1.64,6.46c-1.15,2-3.08,3.37-3.28,4.54s1.33,2.11,2.86,3.05" transform="translate(-154.64 -73.91)"/><path class="cls-18" d="M218.51,150.06c-.51.18-.69.1-1.15-.22s-1.21-.9-1.33-1.44.38-1.05,1.28-1.62a21.06,21.06,0,0,1,4.13-1.85c1.91-.66,4.42-1.37,7.1-.11s5.54,4.49,6.89,6.23,1.23,2-.3,1-4.47-3.33-7.11-4.06a9.94,9.94,0,0,0-6.56.77c-1.59.66-2.44,1.12-3,1.31" transform="translate(-154.64 -73.91)"/><path class="cls-18" d="M199.39,150.06c.51.18.69.1,1.15-.22s1.21-.9,1.33-1.44-.37-1.05-1.28-1.62a21.06,21.06,0,0,0-4.13-1.85c-1.91-.66-4.42-1.37-7.1-.11s-5.53,4.49-6.89,6.23-1.23,2,.3,1,4.47-3.33,7.11-4.06a9.94,9.94,0,0,1,6.56.77c1.59.66,2.44,1.12,2.95,1.31" transform="translate(-154.64 -73.91)"/><path class="cls-15" d="M225.22,155.84c8.3-1.51,10.78,9.57,6.54,13.6,0,0-3.48-.15-5.16-.07s-4.45.51-4.45.51C220.25,168.69,217,157.35,225.22,155.84Z" transform="translate(-154.64 -73.91)"/><path class="cls-6" d="M225.22,155.84c8.3-1.51,10.78,9.57,6.54,13.6,0,0-3.48-.15-5.16-.07s-4.45.51-4.45.51C220.25,168.69,217,157.35,225.22,155.84Z" transform="translate(-154.64 -73.91)"/><path class="cls-18" d="M220.71,168a5.06,5.06,0,0,1,3.18-6.18,4.61,4.61,0,0,1,5.92,3.11,5.09,5.09,0,0,1-1.42,5.14,7.83,7.83,0,0,0-5.84.49,4.7,4.7,0,0,1-1.84-2.56" transform="translate(-154.64 -73.91)"/><path class="cls-15" d="M223.52,163.58c.35.09.52.62.39,1.2s-.52,1-.87.88-.51-.62-.38-1.2.52-1,.86-.88" transform="translate(-154.64 -73.91)"/><path class="cls-15" d="M191.2,155.69c8.42-.42,9.45,10.89,4.71,14.33,0,0-3.43-.6-5.11-.73s-4.48-.08-4.48-.08C184.6,167.78,182.81,156.12,191.2,155.69Z" transform="translate(-154.64 -73.91)"/><path class="cls-6" d="M191.2,155.69c8.42-.42,9.45,10.89,4.71,14.33,0,0-3.43-.6-5.11-.73s-4.48-.08-4.48-.08C184.6,167.78,182.81,156.12,191.2,155.69Z" transform="translate(-154.64 -73.91)"/><path class="cls-18" d="M185.69,166.82a5.06,5.06,0,0,1,4.53-5.28,4.6,4.6,0,0,1,5,4.41,5.09,5.09,0,0,1-2.57,4.67,7.21,7.21,0,0,0-3.58-1.09,7.34,7.34,0,0,0-2.21.2,4.67,4.67,0,0,1-1.2-2.91" transform="translate(-154.64 -73.91)"/><path class="cls-15" d="M189.44,163.22c.32.16.36.73.1,1.25s-.73.83-1,.66-.36-.72-.09-1.25.73-.82,1-.66" transform="translate(-154.64 -73.91)"/><path class="cls-18" d="M214.24,174.28a93.66,93.66,0,0,0-11.47-.49,61.22,61.22,0,0,0-8.21.35c-1.4.23-1.36.59.08,1.92a56.88,56.88,0,0,0,6.15,4.82c1.87,1.2,2.78,1.31,3.64,1.23a9.3,9.3,0,0,0,2.92-.88A39.05,39.05,0,0,0,211.8,179a19.91,19.91,0,0,0,3.8-2.8c.83-.84,1.06-1.51-1.36-1.89" transform="translate(-154.64 -73.91)"/><path class="cls-9" d="M199,263.79a9.65,9.65,0,0,1,5.25.69" transform="translate(-154.64 -73.91)"/><path id="path10349" class="cls-19" d="M216.69,218.34a4.94,4.94,0,0,0-2.44-2.82L191,204.4a4.21,4.21,0,0,0-1.91-.38,8.13,8.13,0,0,0-1.9.15L164,215.37a4.08,4.08,0,0,0-2.29,2.81L156,243.25a4.79,4.79,0,0,0,.84,3.65l16.07,19.88a5.48,5.48,0,0,0,3.5,1.6H202a3.78,3.78,0,0,0,3.5-1.6l16.07-19.88a5.16,5.16,0,0,0,.92-3.65l-5.79-24.91Z" transform="translate(-154.64 -73.91)"/><path id="path10351" class="cls-20" d="M213.11,242.26h0c-.08,0-.15,0-.15-.08s-.16-.08-.31-.08a4,4,0,0,0-.91-.07.92.92,0,0,1-.46-.08h-.08a15.83,15.83,0,0,1-2.59-.46.92.92,0,0,1-.53-.53h0l-.61-.15a20,20,0,0,0-.3-6.71,20.8,20.8,0,0,0-2.67-6.24l.46-.46h0v-.07a1,1,0,0,1,.23-.69,13,13,0,0,1,2.13-1.52h0l.46-.23c.3-.15.53-.31.83-.46.08-.08.16-.08.23-.15s0-.08,0-.15h0a1.5,1.5,0,0,0,.31-2.14,1.48,1.48,0,0,0-1.07-.53,1.83,1.83,0,0,0-1.07.38h0l-.07.08c-.08.07-.15.15-.23.15a5.26,5.26,0,0,0-.61.68c-.08.16-.23.23-.3.31h0a10.23,10.23,0,0,1-1.91,1.68,1.13,1.13,0,0,1-.46.15.44.44,0,0,1-.3-.08h-.08l-.61.38c-.61-.61-1.29-1.22-1.9-1.83a19.59,19.59,0,0,0-9.9-4l-.08-.61h0v.08a1,1,0,0,1-.38-.61,15.42,15.42,0,0,1,.15-2.59v-.08c0-.15.08-.3.08-.45.08-.31.08-.61.15-.92v-.45h0a1.49,1.49,0,0,0-1.29-1.6,1.7,1.7,0,0,0-1.76,1.6h0v.38a3.63,3.63,0,0,0,.16.91,1.06,1.06,0,0,1,.07.46v.07a13.71,13.71,0,0,1,.16,2.59,1.06,1.06,0,0,1-.39.61V219h0l-.07.61c-.84.07-1.68.22-2.59.38a18.1,18.1,0,0,0-9.37,5.33L175,225H175c-.08,0-.16.08-.31.08a1.24,1.24,0,0,1-.46-.15,14.55,14.55,0,0,1-1.9-1.75h0c-.08-.16-.23-.23-.3-.31-.23-.23-.39-.46-.61-.68s-.16-.08-.23-.16l-.08-.07h0a1.79,1.79,0,0,0-1.07-.38,1.15,1.15,0,0,0-1.06.53,1.63,1.63,0,0,0,.3,2.13h0a.08.08,0,0,1,.08.08s.15.15.23.15a7.94,7.94,0,0,0,.84.46l.45.23h0a10.61,10.61,0,0,1,2.14,1.52.76.76,0,0,1,.22.69v-.08h0l.46.46c-.08.15-.15.22-.23.38a18.06,18.06,0,0,0-2.66,12.49l-.61.15h0a.08.08,0,0,1-.08.08,1.18,1.18,0,0,1-.53.53,14.45,14.45,0,0,1-2.59.46h0a1.06,1.06,0,0,0-.46.07c-.3,0-.61.08-.91.08-.08,0-.16.08-.31.08s-.07,0-.15.07h0a1.49,1.49,0,0,0-1.22,1.75h0a1.41,1.41,0,0,0,1.52,1.07.77.77,0,0,0,.39-.07h0c.07,0,.07,0,.07-.08s.23,0,.31,0c.3-.08.61-.23.83-.31a1.24,1.24,0,0,1,.46-.15h.08a13.85,13.85,0,0,1,2.51-.68h.08a.88.88,0,0,1,.61.22c.07,0,.07.08.07.08h0l.69-.08a18.38,18.38,0,0,0,6.24,8.92,12.5,12.5,0,0,0,2.06,1.37l-.38.53h0a.08.08,0,0,0,.08.08.89.89,0,0,1,.07.76,12.25,12.25,0,0,1-1.22,2.21v.07a1.28,1.28,0,0,1-.3.39,8.24,8.24,0,0,0-.53.76c-.08.07-.08.15-.16.23a.07.07,0,0,1-.07.07h0a1.57,1.57,0,0,0,.61,2.06,1.51,1.51,0,0,0,.53.15,1.72,1.72,0,0,0,1.45-.91h0s0-.08.07-.08.08-.15.16-.23c.07-.3.22-.53.3-.84l.15-.45h0a12.93,12.93,0,0,1,1-2.36,1.18,1.18,0,0,1,.61-.46c.08,0,.08,0,.08-.08h0l.3-.61a17.91,17.91,0,0,0,6.63,1.22,15.26,15.26,0,0,0,4.11-.53,21.72,21.72,0,0,0,2.44-.69l.31.54h0c.07,0,.07,0,.07.07a1.19,1.19,0,0,1,.61.46,12.93,12.93,0,0,1,1,2.36v.08l.15.45a2.87,2.87,0,0,0,.31.84c.07.08.07.15.15.23a.08.08,0,0,0,.08.08h0a1.69,1.69,0,0,0,1.44.91,1.88,1.88,0,0,0,.61-.15,1.28,1.28,0,0,0,.69-.84,1.86,1.86,0,0,0-.08-1.14h0a.07.07,0,0,0-.07-.08c0-.07-.08-.15-.16-.23a2.73,2.73,0,0,0-.53-.76,1.25,1.25,0,0,0-.3-.38v-.15a8.75,8.75,0,0,1-1.22-2.21.89.89,0,0,1,.07-.76.08.08,0,0,1,.08-.08h0l-.23-.61a18.81,18.81,0,0,0,8.23-10.36l.61.08h0c.07,0,.07-.08.07-.08a.89.89,0,0,1,.61-.23h.08a12.93,12.93,0,0,1,2.44.69h.07a1.08,1.08,0,0,0,.46.15,3.69,3.69,0,0,0,.84.38c.07,0,.15.08.3.08s.08,0,.16.08h0a.72.72,0,0,0,.38.07,1.66,1.66,0,0,0,1.52-1.07,1.8,1.8,0,0,0-1.37-1.59Zm-22-2.37-2.05,1-2.06-1-.53-2.21,1.45-1.82h2.28l1.45,1.82Zm12.42-4.95a14.68,14.68,0,0,1,.31,4.8l-7.24-2.06h0a1.24,1.24,0,0,1-.92-1.52,1.26,1.26,0,0,1,.31-.53l5.71-5.18A15.38,15.38,0,0,1,203.51,234.94Zm-4.11-7.31-6.25,4.42a1.29,1.29,0,0,1-1.67-.31.66.66,0,0,1-.23-.53l-.46-7.69a14.32,14.32,0,0,1,8.61,4.11Zm-13.79-3.88,1.52-.31-.38,7.62h0a1.27,1.27,0,0,1-1.29,1.22,1.73,1.73,0,0,1-.61-.16l-6.32-4.49A15,15,0,0,1,185.61,223.75Zm-9.29,6.7,5.63,5h0a1.22,1.22,0,0,1,.16,1.75.89.89,0,0,1-.61.38l-7.39,2.13A16,16,0,0,1,176.32,230.45ZM175,243.32l7.54-1.29a1.25,1.25,0,0,1,1.3,1,.93.93,0,0,1-.08.76h0l-2.89,7A15,15,0,0,1,175,243.32Zm17.29,9.45a15.24,15.24,0,0,1-3.27.38,17.31,17.31,0,0,1-4.8-.76l3.73-6.78a1.18,1.18,0,0,1,1.52-.31,3.33,3.33,0,0,1,.61.54h0l3.66,6.62A11.9,11.9,0,0,0,192.31,252.77Zm9.3-6.63a14.66,14.66,0,0,1-4.57,4.57l-3-7.16a1.23,1.23,0,0,1,.68-1.45,2.44,2.44,0,0,1,.69-.15l7.61,1.3A11.48,11.48,0,0,1,201.61,246.14Z" transform="translate(-154.64 -73.91)"/></g></svg>